<svg width="463" height="463" viewBox="0 0 463 463" fill="none" xmlns="http://www.w3.org/2000/svg">
<g clip-path="url(#clip0_126_1014)">
<path d="M231.38 462.76C359.168 462.76 462.76 359.168 462.76 231.38C462.76 103.592 359.168 0 231.38 0C103.592 0 0 103.592 0 231.38C0 359.168 103.592 462.76 231.38 462.76Z" fill="#2B4C68"/>
<path d="M231.38 405.9C327.765 405.9 405.9 327.765 405.9 231.38C405.9 134.995 327.765 56.86 231.38 56.86C134.995 56.86 56.86 134.995 56.86 231.38C56.86 327.765 134.995 405.9 231.38 405.9Z" fill="#223547"/>
<path d="M231.38 349.04C296.362 349.04 349.04 296.362 349.04 231.38C349.04 166.398 296.362 113.72 231.38 113.72C166.398 113.72 113.72 166.398 113.72 231.38C113.72 296.362 166.398 349.04 231.38 349.04Z" fill="#2B4C68"/>
<path d="M231.38 292.17C264.953 292.17 292.17 264.953 292.17 231.38C292.17 197.807 264.953 170.59 231.38 170.59C197.807 170.59 170.59 197.807 170.59 231.38C170.59 264.953 197.807 292.17 231.38 292.17Z" fill="#223547"/>
<path d="M126.04 197.4L126 166.63L118.17 168.32C113.94 169.23 111.23 167.81 110.62 164.97C110.3 163.51 110.22 159.75 111.6 157.6C112.5 156.2 113.75 155.29 117.28 154.53L148.99 147.69C153.22 146.78 155.93 148.2 156.54 151.04C156.86 152.5 156.95 156.26 155.56 158.4C154.66 159.8 153.41 160.72 149.88 161.48L141.43 163.3L141.51 194.22C141.46 199.22 139.82 202.06 135.37 203.02L133.22 203.48C129 204.39 126.06 202.29 126.04 197.4Z" fill="white"/>
<path d="M186.18 184.76C185.7 182.53 185.76 180.19 186.03 175.47C186.24 171.97 186.25 169.4 185.98 168.17C185.37 165.33 183.45 163.89 180.54 164.52C178.01 165.07 176.63 166.49 175.49 169.06L175.47 186.9C175.55 192.51 174.01 194.69 170.25 195.5L168.72 195.83C164.72 196.69 160.83 195.76 160.73 190.08L160.58 148.01C160.59 142.46 162.13 140.28 165.9 139.47L167.43 139.14C171.43 138.28 175.38 139.11 175.32 144.83L175.41 160.88C177.23 155.91 181.19 151.92 186.64 150.74C193.71 149.22 198.97 153.15 200.49 160.21C201.07 162.9 201.03 166.44 200.71 171.65C200.49 175.47 200.37 178.63 200.7 180.17C201.18 182.4 202.39 183.18 204.49 183.21C204.64 183.18 204.38 188.7 196.86 190.32C190.42 191.71 187.16 189.28 186.18 184.76Z" fill="white"/>
<path d="M227.76 173.22C232.21 172.26 235.32 169.18 236.88 165.95C236.94 165.86 242.86 165.39 243.84 169.91C244.4 172.52 243.92 173.99 242.66 175.96C240.73 178.95 236.46 181.88 229.7 183.33C216.18 186.24 208.58 180.41 206.51 170.81C203.51 156.91 212.17 145.24 225.45 142.38C235.89 140.13 242.45 143.7 243.98 150.84C245.68 158.75 241.7 164.51 224.89 168.13C222.97 168.54 220.98 168.97 218.72 169.3C219.96 172.82 223.07 174.23 227.76 173.22ZM221.88 160.1C230.4 158.26 232.67 156.09 232.19 153.86C231.84 152.25 229.92 151.14 226.76 151.82C222.46 152.75 219.56 156.43 218.49 160.75C219.73 160.57 220.88 160.32 221.88 160.1Z" fill="white"/>
<path d="M125.8 257.75L125.75 220.23C125.77 215.08 127.56 212.21 132.01 211.25L133.39 210.95C136.62 210.25 138.52 210.88 141.15 213.77L158.34 233.53L158.27 213.06C158.24 208.08 159.65 205.29 164.1 204.33L165.79 203.96C170.01 203.05 172.72 205.19 172.66 210.11L172.8 247.69C172.77 252.76 170.98 255.63 166.6 256.58L165.67 256.78C162.53 257.46 160.62 256.83 157.91 253.96L140.15 233.44L140.25 254.79C140.28 259.77 138.87 262.56 134.42 263.52L132.66 263.9C128.52 264.79 125.8 262.65 125.8 257.75Z" fill="white"/>
<path d="M196.08 250.79C187.86 252.56 180.98 247.86 178.98 238.57C176.28 226.05 181.94 212.06 194.15 209.42C198.99 208.38 204.08 209.61 207.25 213.51C208.33 208.86 211.1 206.41 215.94 205.37C218.78 204.76 221.35 205.49 221.39 206.05L221.44 233.52C221.42 238.27 222.49 239.88 225.36 240.15C225.45 240.21 225.18 244.53 218.5 245.97C212.43 247.28 208.91 244.75 207.67 240.11C206.06 245.27 201.99 249.52 196.08 250.79ZM199.18 220.07C193.65 221.26 191.35 227.38 192.56 232.99C193.37 236.75 196.29 238.77 199.75 238.03C203.9 237.14 206.69 233.32 206.65 228.27L206.63 223.37C204.97 220.83 202.56 219.34 199.18 220.07Z" fill="white"/>
<path d="M278.27 191.29C285.18 189.8 290.51 194.04 291.97 200.79C292.55 203.48 292.51 207.02 292.19 212.23C291.97 216.05 291.84 219.21 292.18 220.75C292.66 222.98 293.88 223.76 295.97 223.79C296.2 223.74 295.87 229.27 288.34 230.9C281.97 232.27 278.63 229.86 277.66 225.33C277.18 223.1 277.24 220.76 277.51 216.04C277.72 212.54 277.73 209.97 277.46 208.74C276.85 205.9 274.85 204.48 272.47 204.99C270.48 205.42 269.06 206.69 267.84 209.2C267.82 209.12 267.96 227.25 267.96 227.25C267.96 232.88 266.35 235.07 262.58 235.88L261.05 236.21C257.05 237.07 253.18 236.23 253.21 230.43L253.13 215.9C253.09 211.98 251.05 209.6 248.21 210.22C246.07 210.68 244.73 211.93 243.53 214.2L243.54 232.52C243.62 238.13 242.01 240.32 238.17 241.15L236.71 241.46C232.71 242.32 228.82 241.39 228.79 235.69L228.7 203.57C228.71 203.25 230.42 202.23 232.8 201.72C236.56 200.91 240.59 202.05 242.25 207.16C244.51 201.61 248.26 197.75 253.94 196.52C259.24 195.38 264.12 197.54 266.43 202.27C268.6 196.75 272.2 192.6 278.27 191.29Z" fill="white"/>
<path d="M319.32 213.79C323.77 212.83 326.88 209.75 328.44 206.52C328.5 206.43 334.42 205.96 335.4 210.48C335.96 213.09 335.48 214.56 334.22 216.53C332.29 219.52 328.02 222.45 321.26 223.9C307.74 226.81 300.14 220.98 298.07 211.38C295.07 197.48 303.73 185.81 317.01 182.95C327.45 180.7 334.01 184.27 335.54 191.41C337.24 199.32 333.26 205.08 316.45 208.7C314.53 209.11 312.54 209.54 310.28 209.87C311.51 213.38 314.63 214.8 319.32 213.79ZM313.43 200.67C321.95 198.83 324.22 196.66 323.74 194.43C323.39 192.82 321.47 191.71 318.31 192.39C314.01 193.32 311.11 197 310.04 201.32C311.28 201.13 312.43 200.88 313.43 200.67Z" fill="white"/>
<path d="M163.11 318.28C150.14 321.08 140.36 314.5 137.48 301.14C134 285.02 143.05 268.44 160.4 264.7C168.54 262.95 175.13 264.1 179.22 266.67C181.48 268.19 182.96 270.2 183.42 272.35C184.99 279.65 175.85 281.62 175.35 281.16C172.68 278.44 168.52 276.69 163.68 277.73C155.77 279.43 150.87 287.64 152.8 296.63C154.09 303.35 159.15 307.07 165.6 305.68C168.14 305.13 169.98 304.02 171.33 302.44C172.54 300.98 173.34 299.84 173.68 296.95L168.08 298.16C164.55 298.92 162.36 297.71 161.84 295.32C161.58 294.09 161.45 290.91 162.59 289.13C163.39 288 164.41 287.13 167.33 286.51L181.54 283.45C185.69 282.56 187.7 284.45 187.73 289.42L187.76 310.79C187.77 311.19 186.08 312.68 183.39 313.26C179.86 314.02 176.93 313.13 175.48 309.74C173.26 313.92 169.02 317.01 163.11 318.28Z" fill="white"/>
<path d="M210.12 308.06C201.9 309.83 195.02 305.13 193.02 295.84C190.32 283.32 195.98 269.33 208.19 266.69C213.03 265.65 218.12 266.88 221.29 270.78C222.37 266.13 225.14 263.68 229.98 262.64C232.82 262.03 235.39 262.76 235.43 263.32L235.48 290.79C235.46 295.54 236.53 297.15 239.4 297.42C239.49 297.48 239.22 301.8 232.54 303.24C226.47 304.55 222.95 302.02 221.71 297.38C220.1 302.54 216.03 306.79 210.12 308.06ZM213.22 277.34C207.69 278.53 205.39 284.65 206.6 290.26C207.41 294.02 210.33 296.04 213.79 295.3C217.94 294.41 220.73 290.59 220.69 285.54L220.67 280.64C219.01 278.11 216.6 276.62 213.22 277.34Z" fill="white"/>
<path d="M292.3 248.57C299.21 247.08 304.54 251.32 306 258.07C306.58 260.76 306.54 264.3 306.22 269.51C306 273.33 305.87 276.49 306.21 278.03C306.69 280.26 307.91 281.04 310 281.07C310.23 281.02 309.9 286.55 302.37 288.18C296 289.55 292.66 287.14 291.69 282.61C291.21 280.38 291.27 278.04 291.54 273.32C291.75 269.82 291.76 267.25 291.49 266.02C290.88 263.18 288.88 261.76 286.5 262.27C284.51 262.7 283.09 263.97 281.87 266.48C281.85 266.4 281.99 284.53 281.99 284.53C281.99 290.16 280.38 292.35 276.61 293.16L275.08 293.49C271.08 294.35 267.21 293.51 267.24 287.71L267.16 273.18C267.12 269.26 265.08 266.88 262.24 267.5C260.1 267.96 258.76 269.21 257.56 271.48L257.57 289.8C257.65 295.41 256.04 297.6 252.2 298.43L250.74 298.74C246.74 299.6 242.85 298.67 242.82 292.97L242.73 260.85C242.74 260.53 244.45 259.51 246.83 259C250.59 258.19 254.62 259.33 256.28 264.44C258.54 258.89 262.29 255.03 267.97 253.8C273.27 252.66 278.15 254.82 280.46 259.55C282.63 254.03 286.23 249.87 292.3 248.57Z" fill="white"/>
<path d="M333.35 271.06C337.8 270.1 340.91 267.02 342.47 263.79C342.53 263.7 348.45 263.23 349.43 267.75C349.99 270.36 349.51 271.83 348.25 273.8C346.32 276.79 342.05 279.72 335.29 281.17C321.77 284.08 314.17 278.25 312.1 268.65C309.1 254.75 317.76 243.08 331.04 240.22C341.48 237.97 348.04 241.54 349.57 248.68C351.27 256.59 347.29 262.35 330.48 265.97C328.56 266.38 326.57 266.81 324.31 267.14C325.55 270.65 328.66 272.07 333.35 271.06ZM327.47 257.94C335.99 256.1 338.26 253.93 337.78 251.7C337.43 250.09 335.51 248.98 332.35 249.66C328.05 250.59 325.15 254.27 324.08 258.59C325.31 258.4 326.47 258.16 327.47 257.94Z" fill="white"/>
<path d="M118.62 204.82L118.58 174.05L110.75 175.74C106.52 176.65 103.81 175.23 103.2 172.39C102.88 170.93 102.8 167.17 104.18 165.02C105.08 163.62 106.33 162.71 109.86 161.95L141.57 155.11C145.8 154.2 148.51 155.62 149.12 158.46C149.44 159.92 149.53 163.68 148.14 165.82C147.24 167.22 145.99 168.14 142.46 168.9L134.01 170.72L134.09 201.64C134.04 206.64 132.4 209.48 127.95 210.44L125.8 210.9C121.58 211.81 118.63 209.72 118.62 204.82Z" fill="#223547"/>
<path d="M178.76 192.18C178.28 189.95 178.34 187.61 178.61 182.89C178.82 179.39 178.83 176.82 178.56 175.59C177.95 172.75 176.03 171.31 173.12 171.94C170.59 172.49 169.21 173.91 168.07 176.48L168.05 194.32C168.13 199.93 166.59 202.11 162.83 202.92L161.3 203.25C157.3 204.11 153.41 203.18 153.31 197.5L153.16 155.43C153.17 149.88 154.71 147.7 158.48 146.89L160.01 146.56C164.01 145.7 167.96 146.53 167.9 152.25L167.99 168.3C169.81 163.33 173.77 159.34 179.22 158.16C186.29 156.64 191.55 160.57 193.07 167.63C193.65 170.32 193.61 173.86 193.29 179.07C193.07 182.89 192.95 186.05 193.28 187.59C193.76 189.82 194.97 190.6 197.07 190.63C197.22 190.6 196.96 196.12 189.44 197.74C182.99 199.14 179.73 196.71 178.76 192.18Z" fill="#223547"/>
<path d="M220.34 180.65C224.79 179.69 227.9 176.61 229.46 173.38C229.52 173.29 235.44 172.82 236.42 177.34C236.98 179.95 236.5 181.42 235.24 183.39C233.31 186.38 229.04 189.31 222.28 190.76C208.76 193.67 201.16 187.84 199.09 178.24C196.09 164.34 204.75 152.67 218.03 149.81C228.47 147.56 235.03 151.13 236.56 158.27C238.26 166.18 234.28 171.94 217.47 175.56C215.55 175.97 213.56 176.4 211.3 176.73C212.53 180.24 215.65 181.66 220.34 180.65ZM214.45 167.53C222.97 165.69 225.24 163.52 224.76 161.29C224.41 159.68 222.49 158.57 219.33 159.25C215.03 160.18 212.13 163.86 211.06 168.18C212.3 167.99 213.45 167.74 214.45 167.53Z" fill="#223547"/>
<path d="M118.37 265.17L118.32 227.65C118.34 222.5 120.13 219.63 124.58 218.67L125.96 218.37C129.19 217.67 131.09 218.3 133.72 221.19L150.91 240.95L150.84 220.48C150.81 215.5 152.22 212.71 156.67 211.75L158.36 211.38C162.58 210.47 165.29 212.61 165.23 217.53L165.37 255.11C165.34 260.18 163.55 263.05 159.17 264L158.24 264.2C155.1 264.88 153.19 264.25 150.48 261.38L132.72 240.86L132.82 262.21C132.85 267.19 131.44 269.98 126.99 270.94L125.23 271.32C121.09 272.22 118.38 270.07 118.37 265.17Z" fill="#223547"/>
<path d="M188.66 258.21C180.44 259.98 173.56 255.28 171.56 245.99C168.86 233.47 174.52 219.48 186.73 216.84C191.57 215.8 196.66 217.03 199.83 220.93C200.91 216.28 203.68 213.83 208.52 212.79C211.36 212.18 213.93 212.91 213.97 213.47L214.02 240.94C214 245.69 215.07 247.3 217.94 247.57C218.03 247.63 217.76 251.95 211.08 253.39C205.01 254.7 201.49 252.17 200.25 247.53C198.64 252.69 194.57 256.94 188.66 258.21ZM191.76 227.5C186.23 228.69 183.93 234.81 185.14 240.42C185.95 244.18 188.87 246.2 192.33 245.46C196.48 244.57 199.27 240.75 199.23 235.7L199.21 230.8C197.54 228.26 195.14 226.77 191.76 227.5Z" fill="#223547"/>
<path d="M270.84 198.72C277.75 197.23 283.08 201.47 284.54 208.22C285.12 210.91 285.08 214.45 284.76 219.66C284.54 223.48 284.41 226.64 284.75 228.18C285.23 230.41 286.45 231.19 288.54 231.22C288.77 231.17 288.44 236.7 280.91 238.33C274.54 239.7 271.2 237.29 270.23 232.76C269.75 230.53 269.81 228.19 270.08 223.47C270.29 219.97 270.3 217.4 270.03 216.17C269.42 213.33 267.42 211.91 265.04 212.42C263.05 212.85 261.63 214.12 260.41 216.63C260.39 216.55 260.53 234.68 260.53 234.68C260.53 240.31 258.92 242.5 255.15 243.31L253.62 243.64C249.62 244.5 245.75 243.66 245.78 237.86L245.7 223.33C245.66 219.41 243.62 217.03 240.78 217.65C238.64 218.11 237.3 219.36 236.1 221.63L236.11 239.95C236.19 245.56 234.58 247.75 230.74 248.58L229.28 248.89C225.28 249.75 221.39 248.82 221.36 243.12L221.27 211C221.28 210.68 222.99 209.66 225.37 209.15C229.13 208.34 233.16 209.48 234.82 214.59C237.08 209.04 240.83 205.18 246.51 203.95C251.81 202.81 256.69 204.97 259 209.7C261.17 204.18 264.78 200.02 270.84 198.72Z" fill="#223547"/>
<path d="M311.89 221.21C316.34 220.25 319.45 217.17 321.01 213.94C321.07 213.85 326.99 213.38 327.97 217.9C328.53 220.51 328.05 221.98 326.79 223.95C324.86 226.94 320.59 229.87 313.83 231.32C300.31 234.23 292.71 228.4 290.64 218.8C287.64 204.9 296.3 193.23 309.58 190.37C320.02 188.12 326.58 191.69 328.11 198.83C329.81 206.74 325.83 212.5 309.02 216.12C307.1 216.53 305.11 216.96 302.85 217.29C304.09 220.8 307.2 222.22 311.89 221.21ZM306.01 208.09C314.53 206.25 316.8 204.08 316.32 201.85C315.97 200.24 314.05 199.13 310.89 199.81C306.59 200.74 303.69 204.42 302.62 208.74C303.86 208.55 305.01 208.31 306.01 208.09Z" fill="#223547"/>
<path d="M155.69 325.71C142.72 328.51 132.94 321.93 130.06 308.57C126.58 292.45 135.63 275.87 152.98 272.13C161.12 270.38 167.71 271.53 171.8 274.1C174.06 275.62 175.54 277.63 176 279.78C177.57 287.08 168.43 289.05 167.93 288.59C165.26 285.87 161.1 284.12 156.26 285.16C148.35 286.86 143.45 295.07 145.38 304.06C146.67 310.78 151.73 314.5 158.18 313.11C160.72 312.56 162.56 311.45 163.91 309.87C165.12 308.41 165.92 307.27 166.26 304.38L160.66 305.59C157.13 306.35 154.94 305.14 154.42 302.75C154.16 301.52 154.03 298.34 155.17 296.56C155.97 295.43 156.99 294.56 159.91 293.94L174.12 290.88C178.27 289.99 180.28 291.88 180.31 296.85L180.34 318.22C180.35 318.62 178.66 320.11 175.97 320.69C172.44 321.45 169.51 320.56 168.06 317.17C165.84 321.35 161.6 324.43 155.69 325.71Z" fill="#223547"/>
<path d="M202.7 315.49C194.48 317.26 187.6 312.56 185.6 303.27C182.9 290.75 188.56 276.76 200.77 274.12C205.61 273.08 210.7 274.31 213.87 278.21C214.95 273.56 217.72 271.11 222.56 270.07C225.4 269.46 227.97 270.19 228.01 270.75L228.06 298.22C228.04 302.97 229.11 304.58 231.98 304.85C232.07 304.91 231.8 309.23 225.12 310.67C219.05 311.98 215.53 309.45 214.29 304.81C212.68 309.97 208.61 314.21 202.7 315.49ZM205.8 284.77C200.27 285.96 197.97 292.08 199.18 297.69C199.99 301.45 202.91 303.47 206.37 302.73C210.52 301.84 213.31 298.02 213.27 292.97L213.25 288.07C211.58 285.53 209.18 284.04 205.8 284.77Z" fill="#223547"/>
<path d="M284.88 255.99C291.79 254.5 297.12 258.74 298.58 265.49C299.16 268.18 299.12 271.72 298.8 276.93C298.58 280.75 298.45 283.91 298.79 285.45C299.27 287.68 300.49 288.46 302.58 288.49C302.81 288.44 302.48 293.97 294.95 295.6C288.58 296.97 285.24 294.56 284.27 290.03C283.79 287.8 283.85 285.46 284.12 280.74C284.33 277.24 284.34 274.67 284.07 273.44C283.46 270.6 281.46 269.18 279.08 269.69C277.09 270.12 275.67 271.39 274.45 273.9C274.43 273.82 274.57 291.95 274.57 291.95C274.57 297.58 272.96 299.77 269.19 300.58L267.66 300.91C263.66 301.77 259.79 300.93 259.82 295.13L259.74 280.6C259.7 276.68 257.66 274.3 254.82 274.92C252.68 275.38 251.34 276.63 250.14 278.9L250.15 297.22C250.23 302.83 248.62 305.02 244.78 305.85L243.32 306.16C239.32 307.02 235.43 306.09 235.4 300.39L235.31 268.27C235.32 267.95 237.03 266.93 239.41 266.42C243.17 265.61 247.2 266.75 248.86 271.86C251.12 266.31 254.87 262.45 260.55 261.22C265.85 260.08 270.73 262.24 273.04 266.97C275.2 261.45 278.81 257.3 284.88 255.99Z" fill="#223547"/>
<path d="M325.93 278.48C330.38 277.52 333.49 274.44 335.05 271.21C335.11 271.12 341.03 270.65 342.01 275.17C342.57 277.78 342.09 279.25 340.83 281.22C338.9 284.21 334.63 287.14 327.87 288.59C314.35 291.5 306.75 285.67 304.68 276.07C301.68 262.17 310.34 250.5 323.62 247.64C334.06 245.39 340.62 248.96 342.15 256.1C343.85 264.01 339.87 269.77 323.06 273.39C321.14 273.8 319.15 274.23 316.89 274.56C318.12 278.08 321.24 279.49 325.93 278.48ZM320.04 265.36C328.56 263.52 330.83 261.35 330.35 259.12C330 257.51 328.08 256.4 324.92 257.08C320.62 258.01 317.72 261.69 316.65 266.01C317.89 265.83 319.04 265.58 320.04 265.36Z" fill="#223547"/>
<path d="M284.17 169.53C299.667 169.53 312.23 156.967 312.23 141.47C312.23 125.973 299.667 113.41 284.17 113.41C268.673 113.41 256.11 125.973 256.11 141.47C256.11 156.967 268.673 169.53 284.17 169.53Z" fill="#223547"/>
<path d="M290.09 163.61C305.587 163.61 318.15 151.047 318.15 135.55C318.15 120.053 305.587 107.49 290.09 107.49C274.593 107.49 262.03 120.053 262.03 135.55C262.03 151.047 274.593 163.61 290.09 163.61Z" fill="#2B4C68"/>
<path d="M297.98 142.19C298.969 142.19 299.77 141.389 299.77 140.4C299.77 139.411 298.969 138.61 297.98 138.61C296.991 138.61 296.19 139.411 296.19 140.4C296.19 141.389 296.991 142.19 297.98 142.19Z" fill="white"/>
<path d="M273.34 135.27C274.329 135.27 275.13 134.469 275.13 133.48C275.13 132.491 274.329 131.69 273.34 131.69C272.351 131.69 271.55 132.491 271.55 133.48C271.55 134.469 272.351 135.27 273.34 135.27Z" fill="white"/>
<path d="M282.47 148.32C285.88 149.28 289.58 146.82 290.9 142.79C290.97 142.57 290.84 142.33 290.61 142.26L278.67 138.91C278.44 138.85 278.2 138.98 278.15 139.21C277.18 143.34 279.06 147.36 282.47 148.32Z" fill="white"/>
<path d="M126.04 197.4L126 166.63L118.17 168.32C113.94 169.23 111.23 167.81 110.62 164.97C110.3 163.51 110.22 159.75 111.6 157.6C112.5 156.2 113.75 155.29 117.28 154.53L148.99 147.69C153.22 146.78 155.93 148.2 156.54 151.04C156.86 152.5 156.95 156.26 155.56 158.4C154.66 159.8 153.41 160.72 149.88 161.48L141.43 163.3L141.51 194.22C141.46 199.22 139.82 202.06 135.37 203.02L133.22 203.48C129 204.39 126.06 202.29 126.04 197.4Z" fill="white"/>
<path d="M186.18 184.76C185.7 182.53 185.76 180.19 186.03 175.47C186.24 171.97 186.25 169.4 185.98 168.17C185.37 165.33 183.45 163.89 180.54 164.52C178.01 165.07 176.63 166.49 175.49 169.06L175.47 186.9C175.55 192.51 174.01 194.69 170.25 195.5L168.72 195.83C164.72 196.69 160.83 195.76 160.73 190.08L160.58 148.01C160.59 142.46 162.13 140.28 165.9 139.47L167.43 139.14C171.43 138.28 175.38 139.11 175.32 144.83L175.41 160.88C177.23 155.91 181.19 151.92 186.64 150.74C193.71 149.22 198.97 153.15 200.49 160.21C201.07 162.9 201.03 166.44 200.71 171.65C200.49 175.47 200.37 178.63 200.7 180.17C201.18 182.4 202.39 183.18 204.49 183.21C204.64 183.18 204.38 188.7 196.86 190.32C190.42 191.71 187.16 189.28 186.18 184.76Z" fill="white"/>
<path d="M227.76 173.22C232.21 172.26 235.32 169.18 236.88 165.95C236.94 165.86 242.86 165.39 243.84 169.91C244.4 172.52 243.92 173.99 242.66 175.96C240.73 178.95 236.46 181.88 229.7 183.33C216.18 186.24 208.58 180.41 206.51 170.81C203.51 156.91 212.17 145.24 225.45 142.38C235.89 140.13 242.45 143.7 243.98 150.84C245.68 158.75 241.7 164.51 224.89 168.13C222.97 168.54 220.98 168.97 218.72 169.3C219.96 172.82 223.07 174.23 227.76 173.22ZM221.88 160.1C230.4 158.26 232.67 156.09 232.19 153.86C231.84 152.25 229.92 151.14 226.76 151.82C222.46 152.75 219.56 156.43 218.49 160.75C219.73 160.57 220.88 160.32 221.88 160.1Z" fill="white"/>
<path d="M125.8 257.75L125.75 220.23C125.77 215.08 127.56 212.21 132.01 211.25L133.39 210.95C136.62 210.25 138.52 210.88 141.15 213.77L158.34 233.53L158.27 213.06C158.24 208.08 159.65 205.29 164.1 204.33L165.79 203.96C170.01 203.05 172.72 205.19 172.66 210.11L172.8 247.69C172.77 252.76 170.98 255.63 166.6 256.58L165.67 256.78C162.53 257.46 160.62 256.83 157.91 253.96L140.15 233.44L140.25 254.79C140.28 259.77 138.87 262.56 134.42 263.52L132.66 263.9C128.52 264.79 125.8 262.65 125.8 257.75Z" fill="white"/>
<path d="M196.08 250.79C187.86 252.56 180.98 247.86 178.98 238.57C176.28 226.05 181.94 212.06 194.15 209.42C198.99 208.38 204.08 209.61 207.25 213.51C208.33 208.86 211.1 206.41 215.94 205.37C218.78 204.76 221.35 205.49 221.39 206.05L221.44 233.52C221.42 238.27 222.49 239.88 225.36 240.15C225.45 240.21 225.18 244.53 218.5 245.97C212.43 247.28 208.91 244.75 207.67 240.11C206.06 245.27 201.99 249.52 196.08 250.79ZM199.18 220.07C193.65 221.26 191.35 227.38 192.56 232.99C193.37 236.75 196.29 238.77 199.75 238.03C203.9 237.14 206.69 233.32 206.65 228.27L206.63 223.37C204.97 220.83 202.56 219.34 199.18 220.07Z" fill="white"/>
<path d="M278.27 191.29C285.18 189.8 290.51 194.04 291.97 200.79C292.55 203.48 292.51 207.02 292.19 212.23C291.97 216.05 291.84 219.21 292.18 220.75C292.66 222.98 293.88 223.76 295.97 223.79C296.2 223.74 295.87 229.27 288.34 230.9C281.97 232.27 278.63 229.86 277.66 225.33C277.18 223.1 277.24 220.76 277.51 216.04C277.72 212.54 277.73 209.97 277.46 208.74C276.85 205.9 274.85 204.48 272.47 204.99C270.48 205.42 269.06 206.69 267.84 209.2C267.82 209.12 267.96 227.25 267.96 227.25C267.96 232.88 266.35 235.07 262.58 235.88L261.05 236.21C257.05 237.07 253.18 236.23 253.21 230.43L253.13 215.9C253.09 211.98 251.05 209.6 248.21 210.22C246.07 210.68 244.73 211.93 243.53 214.2L243.54 232.52C243.62 238.13 242.01 240.32 238.17 241.15L236.71 241.46C232.71 242.32 228.82 241.39 228.79 235.69L228.7 203.57C228.71 203.25 230.42 202.23 232.8 201.72C236.56 200.91 240.59 202.05 242.25 207.16C244.51 201.61 248.26 197.75 253.94 196.52C259.24 195.38 264.12 197.54 266.43 202.27C268.6 196.75 272.2 192.6 278.27 191.29Z" fill="white"/>
<path d="M319.32 213.79C323.77 212.83 326.88 209.75 328.44 206.52C328.5 206.43 334.42 205.96 335.4 210.48C335.96 213.09 335.48 214.56 334.22 216.53C332.29 219.52 328.02 222.45 321.26 223.9C307.74 226.81 300.14 220.98 298.07 211.38C295.07 197.48 303.73 185.81 317.01 182.95C327.45 180.7 334.01 184.27 335.54 191.41C337.24 199.32 333.26 205.08 316.45 208.7C314.53 209.11 312.54 209.54 310.28 209.87C311.51 213.38 314.63 214.8 319.32 213.79ZM313.43 200.67C321.95 198.83 324.22 196.66 323.74 194.43C323.39 192.82 321.47 191.71 318.31 192.39C314.01 193.32 311.11 197 310.04 201.32C311.28 201.13 312.43 200.88 313.43 200.67Z" fill="white"/>
<path d="M163.11 318.28C150.14 321.08 140.36 314.5 137.48 301.14C134 285.02 143.05 268.44 160.4 264.7C168.54 262.95 175.13 264.1 179.22 266.67C181.48 268.19 182.96 270.2 183.42 272.35C184.99 279.65 175.85 281.62 175.35 281.16C172.68 278.44 168.52 276.69 163.68 277.73C155.77 279.43 150.87 287.64 152.8 296.63C154.09 303.35 159.15 307.07 165.6 305.68C168.14 305.13 169.98 304.02 171.33 302.44C172.54 300.98 173.34 299.84 173.68 296.95L168.08 298.16C164.55 298.92 162.36 297.71 161.84 295.32C161.58 294.09 161.45 290.91 162.59 289.13C163.39 288 164.41 287.13 167.33 286.51L181.54 283.45C185.69 282.56 187.7 284.45 187.73 289.42L187.76 310.79C187.77 311.19 186.08 312.68 183.39 313.26C179.86 314.02 176.93 313.13 175.48 309.74C173.26 313.92 169.02 317.01 163.11 318.28Z" fill="white"/>
<path d="M210.12 308.06C201.9 309.83 195.02 305.13 193.02 295.84C190.32 283.32 195.98 269.33 208.19 266.69C213.03 265.65 218.12 266.88 221.29 270.78C222.37 266.13 225.14 263.68 229.98 262.64C232.82 262.03 235.39 262.76 235.43 263.32L235.48 290.79C235.46 295.54 236.53 297.15 239.4 297.42C239.49 297.48 239.22 301.8 232.54 303.24C226.47 304.55 222.95 302.02 221.71 297.38C220.1 302.54 216.03 306.79 210.12 308.06ZM213.22 277.34C207.69 278.53 205.39 284.65 206.6 290.26C207.41 294.02 210.33 296.04 213.79 295.3C217.94 294.41 220.73 290.59 220.69 285.54L220.67 280.64C219.01 278.11 216.6 276.62 213.22 277.34Z" fill="white"/>
<path d="M292.3 248.57C299.21 247.08 304.54 251.32 306 258.07C306.58 260.76 306.54 264.3 306.22 269.51C306 273.33 305.87 276.49 306.21 278.03C306.69 280.26 307.91 281.04 310 281.07C310.23 281.02 309.9 286.55 302.37 288.18C296 289.55 292.66 287.14 291.69 282.61C291.21 280.38 291.27 278.04 291.54 273.32C291.75 269.82 291.76 267.25 291.49 266.02C290.88 263.18 288.88 261.76 286.5 262.27C284.51 262.7 283.09 263.97 281.87 266.48C281.85 266.4 281.99 284.53 281.99 284.53C281.99 290.16 280.38 292.35 276.61 293.16L275.08 293.49C271.08 294.35 267.21 293.51 267.24 287.71L267.16 273.18C267.12 269.26 265.08 266.88 262.24 267.5C260.1 267.96 258.76 269.21 257.56 271.48L257.57 289.8C257.65 295.41 256.04 297.6 252.2 298.43L250.74 298.74C246.74 299.6 242.85 298.67 242.82 292.97L242.73 260.85C242.74 260.53 244.45 259.51 246.83 259C250.59 258.19 254.62 259.33 256.28 264.44C258.54 258.89 262.29 255.03 267.97 253.8C273.27 252.66 278.15 254.82 280.46 259.55C282.63 254.03 286.23 249.87 292.3 248.57Z" fill="white"/>
<path d="M333.35 271.06C337.8 270.1 340.91 267.02 342.47 263.79C342.53 263.7 348.45 263.23 349.43 267.75C349.99 270.36 349.51 271.83 348.25 273.8C346.32 276.79 342.05 279.72 335.29 281.17C321.77 284.08 314.17 278.25 312.1 268.65C309.1 254.75 317.76 243.08 331.04 240.22C341.48 237.97 348.04 241.54 349.57 248.68C351.27 256.59 347.29 262.35 330.48 265.97C328.56 266.38 326.57 266.81 324.31 267.14C325.55 270.65 328.66 272.07 333.35 271.06ZM327.47 257.94C335.99 256.1 338.26 253.93 337.78 251.7C337.43 250.09 335.51 248.98 332.35 249.66C328.05 250.59 325.15 254.27 324.08 258.59C325.31 258.4 326.47 258.16 327.47 257.94Z" fill="white"/>
<path d="M230.28 92.32L224.96 93.51L220.96 89.8C220.25 89.14 219.1 89.58 219.01 90.55L218.5 95.98L213.74 98.64C212.9 99.11 212.96 100.35 213.85 100.73L218.86 102.89L219.92 108.24C220.11 109.19 221.3 109.51 221.94 108.78L225.55 104.68L230.97 105.33C231.93 105.44 232.6 104.41 232.11 103.58L229.33 98.88L231.62 93.93C232 93.07 231.22 92.11 230.28 92.32Z" fill="white"/>
<path d="M174.22 348.48L169.24 346.24L168.26 340.87C168.09 339.92 166.9 339.58 166.25 340.3L162.58 344.34L157.17 343.61C156.21 343.48 155.52 344.51 156 345.34L158.71 350.08L156.35 355C155.93 355.87 156.69 356.84 157.64 356.65L162.98 355.53L166.93 359.3C167.63 359.97 168.79 359.54 168.89 358.58L169.48 353.16L174.28 350.57C175.14 350.11 175.1 348.88 174.22 348.48Z" fill="white"/>
<path d="M358.95 230.08L353.77 227.9C352.34 227.3 351.67 225.64 352.27 224.21L354.45 219.03C355.05 217.6 356.71 216.93 358.14 217.53L363.32 219.71C364.75 220.31 365.42 221.97 364.82 223.4L362.64 228.58C362.04 230.01 360.39 230.68 358.95 230.08Z" fill="white"/>
<path d="M87.27 224.06L89.82 233.59C90.27 235.28 92.39 235.85 93.63 234.61L100.6 227.64C101.84 226.4 101.27 224.28 99.58 223.83L90.05 221.28C88.37 220.81 86.82 222.36 87.27 224.06Z" fill="white"/>
<path d="M316.63 316.4L310.4 324.05C309.29 325.41 310.07 327.46 311.8 327.74L321.54 329.31C323.27 329.59 324.65 327.89 324.03 326.25L320.52 317.03C319.91 315.39 317.74 315.04 316.63 316.4Z" fill="white"/>
</g>
<defs>
<clipPath id="clip0_126_1014">
<rect width="462.76" height="462.76" fill="white"/>
</clipPath>
</defs>
</svg>
